# xmcd
#
# Track frame offsets:
#	182
#	15395
#	27890
#	42767
#	51882
#	71505
#	82005
#	93615
#	102707
#	116512
#	131945
#	147960
#
# Disc length: 2170 seconds
#
# Revision: 0
# Processed by: cddbd v1.4PL0 Copyright (c) Steve Scherf et al.
# Submitted via: audiograbber 1.81.01
#
DISCID=a708780c
DTITLE=Fausto Leali - I grandi Successi Originali cd1
DYEAR=1900
DGENRE=pop
TTITLE0=A chi
TTITLE1=Per un Momento ho perso tè
TTITLE2=Deborah
TTITLE3=Credi credi
TTITLE4=Ave Maria no morrò
TTITLE5=Sha-la-la
TTITLE6=Un'ora fà
TTITLE7=To vista piangere
TTITLE8=Angeli negri (Angelitos Negros)
TTITLE9=Hippy
TTITLE10=Fly me to the moon
TTITLE11=Senza luce (A whiter shade of pale)
EXTD=
EXTT0=
EXTT1=
EXTT2=
EXTT3=
EXTT4=
EXTT5=
EXTT6=
EXTT7=
EXTT8=
EXTT9=
EXTT10=
EXTT11=
PLAYORDER=
